# This file uses centimeters as units for non-parametric coordinates.

mtllib solo.mtl
v -302.279985 0.000000 257.601085
v -165.887861 0.000000 257.601085
v -29.495736 0.000000 257.601085
v 106.896388 0.000000 257.601085
v 243.288512 0.000000 257.601085
v -302.279985 0.000000 121.208961
v -165.887861 0.000000 121.208961
v -29.495736 0.000000 121.208961
v 106.896388 0.000000 121.208961
v 243.288512 0.000000 121.208961
v -302.279985 0.000000 -15.183164
v -165.887861 0.000000 -15.183164
v -29.495736 0.000000 -15.183164
v 106.896388 0.000000 -15.183164
v 243.288512 0.000000 -15.183164
v -302.279985 0.000000 -151.575288
v -165.887861 0.000000 -151.575288
v -29.495736 0.000000 -151.575288
v 106.896388 0.000000 -151.575288
v 243.288512 0.000000 -151.575288
v -302.279985 0.000000 -287.967413
v -165.887861 0.000000 -287.967413
v -29.495736 0.000000 -287.967413
v 106.896388 0.000000 -287.967413
v 243.288512 0.000000 -287.967413
vt 0.001992 0.001992
vt 0.250996 0.001992
vt 0.250996 0.250996
vt 0.001992 0.250996
vt 0.500000 0.001992
vt 0.500000 0.250996
vt 0.250996 0.500000
vt 0.001992 0.500000
vt 0.749004 0.001992
vt 0.749004 0.250996
vt 0.500000 0.500000
vt 0.250996 0.749004
vt 0.001992 0.749004
vt 0.998008 0.001992
vt 0.998008 0.250996
vt 0.749004 0.500000
vt 0.500000 0.749004
vt 0.250996 0.998008
vt 0.001992 0.998008
vt 0.998008 0.500000
vt 0.749004 0.749004
vt 0.500000 0.998008
vt 0.998008 0.749004
vt 0.749004 0.998008
vt 0.998008 0.998008
vn 0.000000 1.000000 0.000000
vn 0.000000 1.000000 0.000000
vn 0.000000 1.000000 0.000000
vn 0.000000 1.000000 0.000000
vn 0.000000 1.000000 0.000000
vn 0.000000 1.000000 0.000000
vn 0.000000 1.000000 0.000000
vn 0.000000 1.000000 0.000000
vn 0.000000 1.000000 0.000000
vn 0.000000 1.000000 0.000000
vn 0.000000 1.000000 0.000000
vn 0.000000 1.000000 0.000000
vn 0.000000 1.000000 0.000000
vn 0.000000 1.000000 0.000000
vn 0.000000 1.000000 0.000000
vn 0.000000 1.000000 0.000000
vn 0.000000 1.000000 0.000000
vn 0.000000 1.000000 0.000000
vn 0.000000 1.000000 0.000000
vn 0.000000 1.000000 0.000000
vn 0.000000 1.000000 0.000000
vn 0.000000 1.000000 0.000000
vn 0.000000 1.000000 0.000000
vn 0.000000 1.000000 0.000000
vn 0.000000 1.000000 0.000000
s 1
usemtl initialShadingGroup
f 1/1/1 2/2/2 7/3/3 6/4/4
f 2/2/2 3/5/5 8/6/6 7/3/3
f 3/5/5 4/9/7 9/10/8 8/6/6
f 4/9/7 5/14/9 10/15/10 9/10/8
f 6/4/4 7/3/3 12/7/11 11/8/12
f 7/3/3 8/6/6 13/11/13 12/7/11
f 8/6/6 9/10/8 14/16/14 13/11/13
f 9/10/8 10/15/10 15/20/15 14/16/14
f 11/8/12 12/7/11 17/12/16 16/13/17
f 12/7/11 13/11/13 18/17/18 17/12/16
f 13/11/13 14/16/14 19/21/19 18/17/18
f 14/16/14 15/20/15 20/23/20 19/21/19
f 16/13/17 17/12/16 22/18/21 21/19/22
f 17/12/16 18/17/18 23/22/23 22/18/21
f 18/17/18 19/21/19 24/24/24 23/22/23
f 19/21/19 20/23/20 25/25/25 24/24/24
